name rise30.2954peak35.7071fall66.7804.mot
datacolumns 19
datarows 29
range 1.97833500000000 2.02499500000000
endheader
time	ground_force1_vx	ground_force1_vy	ground_force1_vz	ground_force1_px	ground_force1_py	ground_force1_pz	ground_force2_vx	ground_force2_vy	ground_force2_vz	ground_force2_px	ground_force2_py	ground_force2_pz	ground_torque1_x	ground_torque1_y	ground_torque1_z	ground_torque2_x	ground_torque2_y	ground_torque2_z	
1.97833500000000	-34.17585000000000	822.16608199999996	48.12406200000000	0.10190000000000	0.00000000000000	0.05210100000000	-3.52700800000000	15.97721500000000	2.58382600000000	0.00000000000000	0.00000000000000	0.00000000000000	0.00000000000000	13.71343800000000	0.00000000000000	0.00000000000000	0.44121300000000	0.00000000000000	
1.97999400000000	-34.79532000000000	820.73562100000004	48.09274600000000	0.10109100000000	0.00000000000000	0.05199800000000	-4.45831300000000	21.24563100000000	3.34232800000000	0.00000000000000	0.00000000000000	0.00000000000000	0.00000000000000	13.64684000000000	0.00000000000000	0.00000000000000	0.58945500000000	0.00000000000000	
1.98166400000000	-35.43584500000000	819.18191100000001	48.04105800000000	0.10028400000000	0.00000000000000	0.05189200000000	-5.40353100000000	26.96667700000000	4.13839500000000	0.32401400000000	0.00000000000000	-0.13344300000000	0.00000000000000	13.57922000000000	0.00000000000000	0.00000000000000	1.37070800000000	0.00000000000000	
1.98333100000000	-36.09768600000000	817.50351799999999	47.96845000000000	0.09947900000000	0.00000000000000	0.05178200000000	-6.32731900000000	33.01920300000000	4.94846500000000	0.32855700000000	0.00000000000000	-0.13361500000000	0.00000000000000	13.51064900000000	0.00000000000000	0.00000000000000	1.70248300000000	0.00000000000000	
1.98499300000000	-36.78102600000000	815.69901500000003	47.87441000000000	0.09867500000000	0.00000000000000	0.05166800000000	-7.19502600000000	39.27596400000000	5.74871400000000	0.33267300000000	0.00000000000000	-0.13378000000000	0.00000000000000	13.44119200000000	0.00000000000000	0.00000000000000	2.04921400000000	0.00000000000000	
1.98666300000000	-37.48596600000000	813.76697999999999	47.75846300000000	0.09787200000000	0.00000000000000	0.05155100000000	-7.97518400000000	45.61404100000000	6.51682100000000	0.33641400000000	0.00000000000000	-0.13394200000000	0.00000000000000	13.37091300000000	0.00000000000000	0.00000000000000	2.40322900000000	0.00000000000000	
1.98832800000000	-38.21252400000000	811.70598900000005	47.62017700000000	0.09707100000000	0.00000000000000	0.05143100000000	-8.64155900000000	51.92403300000000	7.23347300000000	0.33982300000000	0.00000000000000	-0.13410100000000	0.00000000000000	13.29987200000000	0.00000000000000	0.00000000000000	2.75732500000000	0.00000000000000	
1.99000100000000	-38.96062600000000	809.51461600000005	47.45915900000000	0.09627000000000	0.00000000000000	0.05130700000000	-9.17454400000000	58.11704700000000	7.88344900000000	0.34293700000000	0.00000000000000	-0.13425800000000	0.00000000000000	13.22812500000000	0.00000000000000	0.00000000000000	3.10523200000000	0.00000000000000	
1.99166700000000	-39.73011200000000	807.19142599999998	47.27506100000000	0.09547000000000	0.00000000000000	0.05118000000000	-9.56181900000000	64.12902200000001	8.45621500000000	0.34578400000000	0.00000000000000	-0.13441500000000	0.00000000000000	13.15572700000000	0.00000000000000	0.00000000000000	3.44194600000000	0.00000000000000	
1.99333100000000	-40.52072700000000	804.73497799999996	47.06758100000000	0.09466900000000	0.00000000000000	0.05105000000000	-9.79832800000000	69.92234100000000	8.94605000000000	0.34839200000000	0.00000000000000	-0.13457200000000	0.00000000000000	13.08272500000000	0.00000000000000	0.00000000000000	3.76389200000000	0.00000000000000	
1.99499700000000	-41.33211700000000	802.14381900000001	46.83646100000000	0.09386800000000	0.00000000000000	0.05091600000000	-9.88566400000000	75.48500199999999	9.35175000000000	0.35078100000000	0.00000000000000	-0.13472900000000	0.00000000000000	13.00916600000000	0.00000000000000	0.00000000000000	4.06895100000000	0.00000000000000	
1.99665900000000	-42.16383600000000	799.41648499999997	46.58149300000000	0.09306600000000	0.00000000000000	0.05077900000000	-9.83101100000000	80.82782300000000	9.67602000000000	0.35297000000000	0.00000000000000	-0.13488700000000	0.00000000000000	12.93509000000000	0.00000000000000	0.00000000000000	4.35635800000000	0.00000000000000	
1.99833000000000	-43.01533500000000	796.55149700000004	46.30251600000000	0.09226400000000	0.00000000000000	0.05063900000000	-9.64581800000000	85.98025199999999	9.92463900000000	0.35497700000000	0.00000000000000	-0.13504600000000	0.00000000000000	12.86053500000000	0.00000000000000	0.00000000000000	4.62649300000000	0.00000000000000	
1.99999900000000	-43.88596300000000	793.54736300000002	45.99942200000000	0.09145900000000	0.00000000000000	0.05049500000000	-9.34434700000000	90.98536400000000	10.10552700000000	0.35681600000000	0.00000000000000	-0.13520700000000	0.00000000000000	12.78553200000000	0.00000000000000	0.00000000000000	4.88063200000000	0.00000000000000	
2.00166000000000	-44.77496800000000	790.40257599999995	45.67214900000000	0.09065300000000	0.00000000000000	0.05034900000000	-8.94224800000000	95.89461400000000	10.22779200000000	0.35849900000000	0.00000000000000	-0.13537000000000	0.00000000000000	12.71011000000000	0.00000000000000	0.00000000000000	5.12064700000000	0.00000000000000	
2.00333500000000	-45.68149400000000	787.11561600000005	45.32069100000000	0.08984500000000	0.00000000000000	0.05020000000000	-8.45526600000000	100.76280500000000	10.30084900000000	0.36003700000000	0.00000000000000	-0.13553500000000	0.00000000000000	12.63429100000000	0.00000000000000	0.00000000000000	5.34871900000000	0.00000000000000	
2.00499900000000	-46.60458200000000	783.68495199999995	44.94509000000000	0.08903400000000	0.00000000000000	0.05004800000000	-7.89816100000000	105.64363200000000	10.33366200000000	0.36144000000000	0.00000000000000	-0.13570200000000	0.00000000000000	12.55809400000000	0.00000000000000	0.00000000000000	5.56707800000000	0.00000000000000	
2.00666700000000	-47.54316700000000	780.10903800000006	44.54544200000000	0.08822000000000	0.00000000000000	0.04989400000000	-7.28389400000000	110.58606899999999	10.33415100000000	0.36271800000000	0.00000000000000	-0.13587100000000	0.00000000000000	12.48153300000000	0.00000000000000	0.00000000000000	5.77777500000000	0.00000000000000	
2.00833100000000	-48.49608000000000	776.38632399999995	44.12189600000000	0.08740300000000	0.00000000000000	0.04973600000000	-6.62308700000000	115.63171199999999	10.30878100000000	0.36387900000000	0.00000000000000	-0.13604200000000	0.00000000000000	12.40461700000000	0.00000000000000	0.00000000000000	5.98251700000000	0.00000000000000	
2.00999500000000	-49.46204700000000	772.51525100000003	43.67465300000000	0.08658200000000	0.00000000000000	0.04957700000000	-5.92375800000000	120.81311800000000	10.26233100000000	0.36492900000000	0.00000000000000	-0.13621600000000	0.00000000000000	12.32734900000000	0.00000000000000	0.00000000000000	6.18255400000000	0.00000000000000	
2.01166300000000	-50.43969200000000	768.49425799999995	43.20396500000000	0.08575700000000	0.00000000000000	0.04941500000000	-5.19130100000000	126.15309600000001	10.19783300000000	0.36587500000000	0.00000000000000	-0.13639200000000	0.00000000000000	12.24973100000000	0.00000000000000	0.00000000000000	6.37862300000000	0.00000000000000	
2.01333200000000	-51.42753600000000	764.32178799999997	42.71013700000000	0.08492800000000	0.00000000000000	0.04925100000000	-4.42866100000000	131.66481899999999	10.11664700000000	0.36672300000000	0.00000000000000	-0.13657000000000	0.00000000000000	12.17175500000000	0.00000000000000	0.00000000000000	6.57094200000000	0.00000000000000	
2.01500000000000	-52.42400000000000	759.99628900000005	42.19352700000000	0.08409500000000	0.00000000000000	0.04908500000000	-3.63666800000000	137.35260199999999	10.01865000000000	0.36747900000000	0.00000000000000	-0.13675100000000	0.00000000000000	12.09341400000000	0.00000000000000	0.00000000000000	6.75924700000000	0.00000000000000	
2.01666300000000	-53.42740600000000	755.51622699999996	41.65454400000000	0.08325600000000	0.00000000000000	0.04891800000000	-2.81445800000000	143.21316800000000	9.90249700000000	0.36814800000000	0.00000000000000	-0.13693400000000	0.00000000000000	12.01469200000000	0.00000000000000	0.00000000000000	6.94285900000000	0.00000000000000	
2.01833400000000	-54.43598000000000	750.88008500000001	41.09364500000000	0.08241300000000	0.00000000000000	0.04874800000000	-1.95995900000000	149.23721300000000	9.76593200000000	0.36873500000000	0.00000000000000	-0.13711800000000	0.00000000000000	11.93557000000000	0.00000000000000	0.00000000000000	7.12076600000000	0.00000000000000	
2.01999700000000	-55.44785400000000	746.08637799999997	40.51133900000000	0.08156400000000	0.00000000000000	0.04857700000000	-1.07036500000000	155.41110200000000	9.60610300000000	0.36924300000000	0.00000000000000	-0.13730500000000	0.00000000000000	11.85602500000000	0.00000000000000	0.00000000000000	7.29173000000000	0.00000000000000	
2.02166600000000	-56.46107100000000	741.13366099999996	39.90818300000000	0.08071000000000	0.00000000000000	0.04840400000000	-0.14258900000000	161.71854400000001	9.41986600000000	0.36967700000000	0.00000000000000	-0.13749300000000	0.00000000000000	11.77602800000000	0.00000000000000	0.00000000000000	7.45437500000000	0.00000000000000	
2.02333100000000	-57.47358900000000	736.02053699999999	39.28478000000000	0.07985000000000	0.00000000000000	0.04823100000000	0.82635100000000	168.14212200000000	9.20405800000000	0.37004100000000	0.00000000000000	-0.13768300000000	0.00000000000000	11.69554800000000	0.00000000000000	0.00000000000000	7.60728300000000	0.00000000000000	
2.02499500000000	-58.48328400000000	730.74567400000001	38.64178100000000	0.07898400000000	0.00000000000000	0.04805600000000	1.83901900000000	174.66460499999999	8.95572100000000	0.37033800000000	0.00000000000000	-0.13787500000000	0.00000000000000	11.61454600000000	0.00000000000000	0.00000000000000	7.74907400000000	0.00000000000000	
